<svg height="511pt" viewBox="0 0 511.99883 511" width="511pt" xmlns="http://www.w3.org/2000/svg"><path d="m502 252.5h-10.71875c-4.425781-30.820312-29-55.21875-59.90625-59.375-4.59375-34.179688-33.953125-60.625-69.375-60.625-5.402344 0-10.722656.609375-15.90625 1.816406-11.03125-25.054687-36.09375-41.816406-64.09375-41.816406s-53.0625 16.761719-64.09375 41.816406c-5.183594-1.207031-10.503906-1.816406-15.90625-1.816406-14.597656 0-28.539062 4.46875-40.242188 12.726562l-103.707031-140.660156c-3.277343-4.445312-9.539062-5.394531-13.984375-2.117187-4.445312 3.277343-5.390625 9.539062-2.113281 13.984375l105.148437 142.617187c-7.855468 9.875-12.824218 21.570313-14.484374 34.066407-1.539063.207031-3.070313.480468-4.589844.789062l-109.972656-149.335938c-3.277344-4.449218-9.539063-5.398437-13.984376-2.121093-4.445312 3.273437-5.394531 9.535156-2.121093 13.980469l106.484375 144.597656c-19.34375 10.507812-32.597656 29.511718-35.714844 51.472656h-10.71875c-5.523438 0-10 4.476562-10 10 0 28.058594 5.539062 56.210938 14.945312 82.054688 1.886719 5.1875 7.625 7.867187 12.816407 5.976562 5.1875-1.886719 7.863281-7.625 5.976562-12.816406-3.019531-8.292969-5.550781-16.742188-7.597656-25.226563h407.722656c-15.039062 62.210938-56.179687 117.316407-105.273437 140.011719h-197.195313c-21.9375-10.132812-42.714843-26.757812-60.199219-48.21875-3.488281-4.285156-9.789062-4.925781-14.070312-1.4375-4.28125 3.484375-4.925781 9.785156-1.4375 14.066406 18.609375 22.847656 40.75 40.84375 64.3125 52.335938v33.25c0 5.523437 4.476562 10 10 10h200c5.523438 0 10-4.476563 10-10v-33.246094c72.421875-35.277344 120-124.75 120-206.75 0-5.523438-4.476562-10-10-10zm-310 240v-20h180v20zm-119.746094-220.007812h419.492188c-.335938 6.617187-1.003906 13.308593-1.988282 20.007812h-415.511718c-.988282-6.695312-1.65625-13.390625-1.992188-20.007812zm69.652344-59.992188h.09375c2.648438 0 5.191406-1.050781 7.066406-2.921875 1.878906-1.875 2.933594-4.421875 2.933594-7.078125 0-27.667969 22.394531-50 50-50 6.363281 0 12.558594 1.175781 18.417969 3.496094 2.644531 1.050781 5.609375.921875 8.15625-.351563 2.542969-1.273437 4.425781-3.570312 5.171875-6.316406 5.910156-21.683594 25.75-36.828125 48.253906-36.828125 22.5 0 42.339844 15.144531 48.25 36.828125.746094 2.746094 2.628906 5.042969 5.175781 6.316406 2.542969 1.273438 5.507813 1.402344 8.15625.351563 5.855469-2.320313 12.050781-3.496094 18.414063-3.496094 27.570312 0 50 22.429688 50 50 0 5.523438 4.476562 10 10 10 24.148437 0 44.347656 17.207031 48.996094 40h-378c4.75-23.609375 25.503906-40 48.914062-40zm0 0"/><path d="m305.699219 167.960938c-15.28125-6.089844-32.117188-6.089844-47.398438 0-5.132812 2.042968-7.632812 7.859374-5.589843 12.988281 2.042968 5.132812 7.859374 7.636719 12.992187 5.589843 10.507813-4.183593 22.085937-4.183593 32.597656 0 5.109375 2.039063 10.9375-.4375 12.992188-5.589843 2.042969-5.128907-.460938-10.945313-5.59375-12.988281zm0 0"/><path d="m385.699219 207.960938c-15.28125-6.089844-32.117188-6.089844-47.398438 0-5.132812 2.042968-7.632812 7.859374-5.589843 12.988281 2.042968 5.132812 7.859374 7.632812 12.988281 5.589843 10.511719-4.183593 22.089843-4.183593 32.601562 0 5.109375 2.039063 10.9375-.4375 12.992188-5.589843 2.042969-5.128907-.460938-10.945313-5.59375-12.988281zm0 0"/><path d="m225.699219 207.960938c-15.28125-6.089844-32.117188-6.089844-47.398438 0-5.132812 2.042968-7.632812 7.859374-5.589843 12.988281 2.042968 5.132812 7.859374 7.632812 12.992187 5.589843 10.507813-4.183593 22.085937-4.183593 32.597656 0 5.109375 2.039063 10.941407-.4375 12.992188-5.589843 2.042969-5.128907-.460938-10.945313-5.59375-12.988281zm0 0"/><path d="m103 377.5c0-5.519531-4.480469-10-10-10s-10 4.480469-10 10 4.480469 10 10 10 10-4.480469 10-10zm0 0"/></svg>