<svg id="Capa_1" enable-background="new 0 0 512 512" height="512" viewBox="0 0 512 512" width="512" xmlns="http://www.w3.org/2000/svg"><path d="m377 122c-15.392 0-30.621 2.628-45 7.702v-39.702h15c8.284 0 15-6.716 15-15s-6.716-15-15-15h-15v-45c0-8.284-6.716-15-15-15h-60c-8.284 0-15 6.716-15 15v45h-15c-8.284 0-15 6.716-15 15s6.716 15 15 15h15v109.296c-16.73 12.879-30.707 31.41-41.922 50.409-.031.054-.066.106-.096.161-11.115 18.858-19.5 38.145-25.136 52.835-2.909-.46-5.86-.701-8.846-.701-43.471 0-70.215 46.285-74.352 91.167-5.107-.766-10.331-1.167-15.648-1.167h-61c-8.284 0-15 6.716-15 15 0 57.897 47.103 105 105 105h260.614c3.631 0 7.139-1.317 9.872-3.707 29.561-25.84 46.514-62.76 46.514-101.293 0-6.764-.496-14.188-1.479-22.183 23.979-8.192 45.48-23.154 61.542-43.036 19.305-23.897 29.937-54.006 29.937-84.781 0-74.439-60.561-135-135-135zm-105-92h30v30h-30zm-167 452c-36.219 0-66.523-25.809-73.493-60h44.493c36.219 0 66.523 25.809 73.493 60zm16.108-79.805c1.545-38.517 21.468-70.195 44.892-70.195 24.393 0 45 34.346 45 75 0 32.938-13.529 61.73-31.637 71.474-6.029-33.733-28.225-61.933-58.255-76.279zm97.681 79.805c.717-.993 1.426-2.001 2.118-3.04 5.354-8.031 9.696-17.119 12.97-26.907 8.885-.017 21.932-.031 34.549-.041-6.195 17.454-22.874 29.988-42.426 29.988zm181.62-122.616c-7.792 1.773-12.826 9.344-11.446 17.216 2.016 11.498 3.037 21.726 3.037 30.4 0 28.087-11.683 55.126-32.228 75h-73.813c9.438-12.544 15.041-28.129 15.041-45 0-8.277-6.714-15-15-15-.002 0-36.291.026-45.75.041.497-4.943.75-9.967.75-15.041 0-34.44-12.32-72.004-38.678-92.203 5.878-15.621 12.467-30.023 19.507-42.797h43.958c9.673 0 18.767 3.767 25.606 10.607 12.506 12.506 29.134 19.393 46.82 19.393h28.355c2.591 6.149 5.065 12.5 7.397 19.023 2.494 6.977 9.677 11.047 16.89 9.694 35.429-6.645 61.145-37.647 61.145-73.717 0-41.355-33.645-75-75-75-22.117 0-43.007 9.717-57.314 26.66-5.118 6.062-4.632 15.062 1.112 20.535 10.779 10.275 21.487 25.023 31.302 42.805h-13.887c-9.673 0-18.767-3.767-25.606-10.607-12.506-12.506-29.134-19.393-46.82-19.393h-24.228c7.731-9.652 15.68-17.257 23.576-22.354 4.28-2.763 6.865-7.509 6.865-12.603v-117.043h30v63.054c0 11.507 12.492 18.778 22.511 12.984 15.876-9.184 34.026-14.038 52.489-14.038 57.897 0 105 47.103 105 105 0 49.351-33.552 91.453-81.591 102.384zm-47.858-140.145c7.21-4.681 15.67-7.239 24.449-7.239 24.813 0 45 20.187 45 45 0 17.408-9.978 32.848-24.94 40.298-10.73-26.87-25.698-55.906-44.509-78.059z"/><circle cx="287" cy="317" r="15"/><circle cx="287" cy="377" r="15"/><circle cx="347" cy="347" r="15"/></svg>